<svg fill="#000000" viewBox="0 0 24 24" id="log-in-3" data-name="Flat Color" xmlns="http://www.w3.org/2000/svg" class="icon flat-color"><g id="SVGRepo_bgCarrier" stroke-width="0"></g><g id="SVGRepo_tracerCarrier" stroke-linecap="round" stroke-linejoin="round"></g><g id="SVGRepo_iconCarrier"><path id="secondary" d="M17.71,11.29l-3-3a1,1,0,0,0-1.42,1.42L14.59,11H3a1,1,0,0,0,0,2H14.59l-1.3,1.29a1,1,0,0,0,0,1.42,1,1,0,0,0,1.42,0l3-3A1,1,0,0,0,17.71,11.29Z" style="fill: #ef8236;"></path><path id="primary" d="M20,21H17a1,1,0,0,1,0-2h3V5H17a1,1,0,0,1,0-2h3a2,2,0,0,1,2,2V19A2,2,0,0,1,20,21Z" style="fill: #000000;"></path></g></svg>